PathFileType	3	(X/Y/Z)	D:\minhoCalibration\240510\subject1_KPNP\preferred\preferred02.trc
DataRate	CameraRate	NumFrames	NumMarkers	Units	OrigDataRate	OrigDataStartFrame	OrigNumFrames
200.0	200.0	27	10	mm	200.0	341	236	
Frame#	Time	Left_Ankle_Outer1			Left_Ankle_Inner1			Left_Knee_Outer1			Left_Knee_Inner1			Left_Wrist1			Right_Wrist1			Right_Knee_Inner1			Right_Knee_Outer1			Right_Ankle_Inner1			Right_Ankle_Outer1			
		X1	Y1	Z1	X2	Y2	Z2	X3	Y3	Z3	X4	Y4	Z4	X5	Y5	Z5	X6	Y6	Z6	X7	Y7	Z7	X8	Y8	Z8	X9	Y9	Z9	X10	Y10	Z10	
341	1.695	-484.03806	116.68518	-579.32202	-534.86914	127.9071	-553.6488	-368.5878	532.28302	-411.38364	-480.7645	513.03876	-412.07291	-340.63315	996.75806	-519.01996	-671.88153	1005.936	-650.59448	-677.51099	524.85327	-557.789	-753.09558	561.56097	-636.06134	-587.73651	201.4942	-861.60992	-657.98322	218.97481	-924.24524
342	1.7	-483.81573	116.85011	-579.15112	-534.65985	127.97357	-553.70587	-370.49881	533.13873	-411.2157	-482.13062	513.31268	-413.92813	-342.88666	996.99115	-518.39233	-671.56604	1005.9243	-656.27924	-678.86975	524.09967	-568.4342	-752.10168	561.35822	-648.02148	-584.40448	199.55655	-868.76056	-653.0791	216.89145	-932.95099
343	1.705	-483.43948	117.02682	-579.10065	-534.52075	127.9362	-553.98248	-372.64359	533.96637	-410.92847	-484.14224	513.96167	-414.80319	-345.15195	997.31708	-517.90674	-671.37769	1005.8015	-661.92804	-680.08319	523.51495	-578.90576	-751.38599	561.49591	-659.84711	-580.9361	197.47479	-875.55701	-648.07977	214.80679	-941.34686
344	1.71	-482.96854	117.06515	-579.13745	-534.21838	127.8952	-554.2901	-375.08322	534.83203	-410.57904	-486.53003	514.73352	-415.46759	-347.53818	997.74921	-517.39795	-671.04889	1005.3671	-667.84412	-681.11859	523.03882	-589.13586	-749.92883	561.35602	-671.44489	-577.61469	195.31592	-881.84137	-642.98871	212.63965	-949.39398
345	1.715	-482.34589	117.00507	-579.21124	-533.92957	127.94485	-555.15228	-377.30627	535.48792	-410.56375	-488.6142	515.27972	-416.72281	-350.01315	998.10962	-516.99152	-670.88446	1005.8606	-673.13281	-681.79645	522.52124	-599.25684	-748.26721	561.41876	-682.92554	-574.30743	192.95676	-887.87201	-638.0567	210.35904	-956.92029
346	1.72	-481.57574	116.89311	-579.41351	-533.26447	127.54837	-555.39581	-379.44958	536.10889	-410.62128	-490.3938	515.38251	-418.61676	-352.44672	998.39417	-516.89142	-670.6676	1005.4507	-678.784	-682.13446	522.31287	-609.32446	-746.31873	561.50006	-694.07855	-571.08136	190.54398	-893.50934	-633.01935	208.10559	-964.09296
347	1.725	-481.30502	116.29469	-579.09198	-532.61499	127.13116	-556.10547	-381.68851	536.62836	-410.78122	-492.5397	515.59338	-420.21326	-354.98053	998.65344	-516.82837	-670.01569	1004.9132	-684.04803	-682.54883	522.51929	-618.80365	-744.08606	561.61194	-704.91504	-567.97247	188.04976	-898.81903	-628.07782	205.77861	-971.00562
348	1.73	-479.81219	116.45047	-579.76636	-532.03613	126.89823	-557.17285	-383.87561	537.09314	-411.04266	-494.62152	515.6969	-421.92004	-357.63126	998.82721	-516.82971	-669.84869	1005.2267	-689.87158	-682.03253	522.34558	-628.25116	-741.59052	561.87573	-715.56506	-564.97595	185.50481	-903.91803	-623.1665	203.33923	-977.5011
349	1.735	-478.78375	116.17894	-580.22449	-531.30304	126.22408	-557.6355	-386.05185	537.48389	-411.39731	-496.66223	515.64618	-423.75931	-360.15408	998.8288	-517.04834	-669.4527	1005.408	-695.39294	-681.31458	522.52795	-637.65497	-738.979	562.11798	-726.00464	-562.01459	183.04698	-908.7547	-618.41046	201.00154	-983.80371
350	1.74	-477.99539	115.80252	-580.54968	-530.60077	125.7719	-558.43329	-388.17712	537.76257	-411.8335	-498.65222	515.45215	-425.66577	-362.79822	998.8847	-517.25983	-668.64667	1005.3965	-700.73792	-679.73041	522.32465	-646.56641	-736.18817	562.34705	-736.33319	-559.12384	180.50989	-913.31689	-613.83936	198.46129	-989.76923
351	1.745	-477.20776	115.4444	-580.8399	-530.04468	125.23787	-559.26642	-390.1174	538.05688	-412.2695	-500.70273	515.23029	-427.55936	-365.46848	998.81982	-517.57953	-668.39978	1005.5951	-706.46777	-678.04871	522.38977	-655.27496	-733.14484	562.56757	-746.13605	-556.27423	177.9946	-917.63647	-609.46472	195.85989	-995.24585
352	1.75	-476.50446	115.17667	-581.22107	-529.81305	125.16226	-560.37	-392.29132	538.22205	-412.94138	-502.59698	514.96619	-429.57669	-368.06778	998.55499	-518.04474	-667.8866	1005.826	-711.97821	-676.00885	522.38782	-663.91431	-729.92841	562.66162	-755.50555	-553.422	175.48964	-921.89746	-605.13428	193.28018	-1000.5896
353	1.755	-476.06219	114.84143	-581.58801	-529.5603	124.75571	-561.02209	-394.31958	538.41266	-413.65237	-504.40573	514.90759	-431.29251	-370.84448	998.24677	-518.53699	-667.10199	1005.8057	-717.38562	-673.80688	522.44098	-672.2218	-726.52063	562.76074	-764.53784	-550.7829	173.10551	-925.91595	-600.95502	190.54475	-1005.5612
354	1.76	-475.77533	114.60174	-581.90088	-529.20135	124.05489	-561.23651	-396.33243	538.70093	-414.39902	-506.17386	514.77832	-433.08194	-373.55804	997.92133	-519.30951	-666.50262	1005.8469	-723.03833	-671.33594	522.42975	-680.31189	-722.93378	562.77649	-773.35999	-548.1394	170.65598	-929.77301	-596.88446	187.91226	-1010.4319
355	1.765	-475.69647	114.40561	-582.15674	-529.38702	124.04057	-562.00562	-398.23596	539.0426	-415.25101	-508.13931	514.70807	-434.78168	-376.32587	997.52032	-520.18201	-665.94745	1006.1335	-728.53754	-668.78284	522.38751	-688.14972	-719.48621	562.7168	-781.82611	-545.36749	168.19745	-933.53613	-592.74219	185.01556	-1014.6872
356	1.77	-475.80463	114.20475	-582.37219	-529.54584	123.78872	-562.33838	-400.15817	539.39636	-416.13593	-509.86917	514.73926	-436.31973	-379.1167	996.8598	-521.80481	-665.26605	1006.1354	-734.02423	-666.02026	522.29071	-695.73755	-715.7309	562.58447	-790.02374	-543.02069	165.8929	-936.85577	-589.42352	182.16432	-1018.9225
357	1.775	-476.02652	114.13876	-582.5647	-529.64111	123.30157	-562.1073	-402.00046	539.83264	-416.92358	-511.57773	514.89502	-437.78796	-381.7637	996.35852	-523.00952	-664.56805	1006.1704	-739.63318	-663.21893	522.05023	-703.14606	-711.93561	562.3941	-798.07947	-540.8266	163.51286	-939.87714	-586.03021	179.11388	-1022.6625
358	1.78	-476.44571	114.16035	-582.74316	-530.29584	123.32823	-562.68134	-404.00958	540.29395	-417.85916	-513.64716	514.88159	-439.00888	-384.53113	995.85889	-524.06244	-663.91724	1006.1344	-745.13971	-660.37177	521.74957	-710.35529	-708.19183	562.1604	-805.77222	-538.43311	160.94815	-942.80212	-582.67804	175.79327	-1025.7991
359	1.785	-476.8923	114.14653	-582.82782	-530.80194	123.1308	-562.74811	-405.98111	540.76886	-418.83255	-515.27563	515.05341	-440.60324	-387.30948	995.34705	-525.62463	-663.5639	1006.3031	-750.96033	-657.80084	521.76965	-717.71814	-704.46387	561.86249	-813.34735	-536.18469	158.37099	-945.25348	-579.92017	172.7048	-1029.0012
360	1.79	-477.45441	114.15923	-582.89301	-531.44012	123.01439	-562.76276	-408.21231	541.27216	-420.09012	-517.00818	515.3299	-441.98251	-389.7807	994.73035	-527.4389	-662.87103	1006.0606	-756.33856	-655.04865	521.43268	-724.59369	-700.63788	561.53918	-820.77161	-535.04999	155.85912	-947.00171	-576.90656	169.48822	-1031.8771
361	1.795	-478.08578	114.14739	-582.9856	-532.01923	122.83789	-562.85535	-410.29221	541.79895	-421.15952	-518.72461	515.69751	-443.38492	-392.21381	994.09906	-529.48083	-662.29822	1005.9031	-761.69244	-652.13153	521.01855	-731.12482	-696.79895	561.18817	-827.98846	-533.32928	153.23232	-948.83862	-573.92255	166.17639	-1034.0002
362	1.8	-478.66956	114.06301	-582.98254	-532.16479	122.62644	-562.86273	-412.35641	542.36938	-422.29001	-520.38153	516.07227	-444.83344	-394.54306	993.49609	-531.70319	-661.66156	1005.6591	-766.96924	-649.39105	520.71704	-737.85394	-692.9635	560.758	-835.2027	-531.80029	150.50403	-950.29834	-571.43982	162.69397	-1036.0094
363	1.805	-479.08261	113.93658	-583.06458	-533.08783	122.91113	-562.62115	-414.48087	542.86743	-423.49988	-522.17279	516.44135	-446.43643	-396.79483	992.81464	-534.09351	-661.07452	1005.3569	-772.15143	-646.60376	520.38531	-744.33521	-689.151	560.41138	-842.10254	-530.48114	147.73766	-951.52106	-569.30255	158.99171	-1037.4723
364	1.81	-479.47504	113.77446	-583.13141	-533.18475	122.34128	-562.41895	-416.5433	543.31702	-424.71692	-523.91089	516.76141	-448.34525	-398.97018	992.19092	-536.59601	-660.53137	1005.0278	-777.14856	-643.74695	519.97882	-750.67957	-685.33997	560.03674	-849.00024	-529.40961	145.06184	-952.36389	-567.17584	155.51234	-1038.8422
365	1.815	-479.64114	113.47398	-583.33362	-533.65875	122.16245	-563.15405	-418.53983	543.74481	-425.97757	-525.62616	516.99451	-450.36942	-400.78519	991.43262	-539.49963	-659.95007	1004.6584	-782.18506	-640.81812	519.66229	-756.8515	-681.57349	559.65851	-855.73718	-528.32104	142.54816	-953.13916	-565.23309	152.36841	-1040.3143
366	1.82	-479.6795	113.13461	-583.54047	-533.55969	121.55952	-563.13678	-420.25577	544.13519	-427.12872	-527.34851	517.14539	-452.61609	-402.32108	990.67627	-542.60474	-659.31866	1004.1321	-787.48859	-638.03674	519.29547	-762.84906	-677.83691	559.18848	-862.45789	-527.33759	139.93558	-953.99451	-563.51538	148.8503	-1041.197
367	1.825	-479.63489	112.66367	-583.80267	-533.85657	121.25551	-564.07001	-422.15424	544.38019	-428.52032	-528.96747	517.14362	-454.96558	-404.67239	990.15936	-544.91766	-658.7533	1003.7064	-792.30109	-635.4566	518.97302	-768.5957	-674.16681	558.77789	-868.83917	-526.40796	137.52361	-954.65515	-561.81921	145.93336	-1042.2535
